<svg xmlns="http://www.w3.org/2000/svg" xmlns:xlink="http://www.w3.org/1999/xlink" viewBox="0 0 692.19 334.39"><defs><style>.cls-1{fill:none;}.cls-2{fill:#c3a95f;}.cls-3{fill:#cfba80;}.cls-4{clip-path:url(#clip-path);}</style><clipPath id="clip-path" transform="translate(0 -20.32)"><rect class="cls-1" x="312.62" width="72.44" height="87.11"/></clipPath></defs><g id="Capa_2" data-name="Capa 2"><g id="Layer_6" data-name="Layer 6"><path class="cls-2" d="M33.1,306.9H0v-3.07c5.63,0,10.75-4.61,10.75-10.07V206.23c0-5.29-5.12-15.7-10.75-15.7v-2.9H63c12.8,0,24.74,5.29,24.74,18.6,0,9.89-5.62,19.45-14.84,26.27,11.6,1.37,28.5,13.14,28.5,31.06C101.36,289.32,76.1,306.9,33.1,306.9ZM43.51,195c-5.29,0-10.07,5.8-10.07,11.61v35.15C49,230.28,62.62,223,62.62,209.3A13.9,13.9,0,0,0,49.14,195Zm32.76,67.75c0-9.39-6-20.31-20.64-20.31-6.49,0-16.55,2.9-22.19,6.83v40.6c0,6.32,1.88,7.85,6.15,7.85C55.46,297.68,76.27,280.79,76.27,262.71Z" transform="translate(0 -20.32)"/><path class="cls-2" d="M110.9,222.61v-3.25l29.69-3.75v59c0,21.67,8.36,22.35,11.94,22.35,8.19,0,18.94-9,23.21-15.36V234.38c0-7.68-1.88-11.77-7.68-11.77v-3.25l29.86-3.75v74.57c0,6.82,5.29,13.48,11.09,13.48v3.24H184.78c-6.14,0-9-3.59-9-8.87v-3.76c-4.27,3.93-16.72,13.48-29.35,13.48-16.89,0-27.81-8.87-27.81-33.1V234.38C118.58,226.19,116.53,222.61,110.9,222.61Z" transform="translate(0 -20.32)"/><path class="cls-2" d="M291.42,229.94c0,6.66-5.12,12.63-9.22,12.63-2.39,0-6-10.75-17.91-10.75-7.51,0-13.14,6-13.31,20.65V288.3c0,6.14,5.29,15.36,11.09,15.36v3.24h-44.2v-3.24c5.81,0,11.1-9.22,11.1-15.36V234.21c0-5.8-5.29-11.6-11.1-11.6v-3.25L251,215.61v17.58c8.19-9.39,17.91-18.6,25.25-18.6C287.49,214.59,291.42,221.92,291.42,229.94Z" transform="translate(0 -20.32)"/><path class="cls-2" d="M389,215.44c0,4.44-2.56,7.17-5.29,7.17-2.39,0-4.26-5.63-9.89-5.63-2.9,0-7.68,4.26-9.56,6.82,9.05,6.31,14.16,16.55,14.16,28,0,19.12-16.38,35-37,35-5.12,0-12.12-1.19-15.87-3.07-10.75,7.85-4.61,14.34,25.08,14.34,18.6,0,35.15,5.63,35.15,24.05,0,14.17-16.89,24.06-42.32,24.06-16.89,0-41.12-2.73-41.12-17.23,0-13,17.41-11.77,17.41-11.77-3.76,11.94,7.67,20.47,28,20.47,9.56,0,23.89-2.22,23.89-10.41,0-10.92-17.58-12.28-29-12.28-25.43,0-38.73-7-38.73-19.62,0-7.34,8.53-15,12.11-17.92a34.4,34.4,0,0,1-11.6-25.6c0-19.45,16.55-35.15,36.86-35.15A39.51,39.51,0,0,1,358,220.22c5.12-8.36,11.43-15.53,18.77-15.53C382.53,204.69,389,208.1,389,215.44Zm-34.12,36.34c-1-16.21-7.68-28.15-15.87-28.15s-13,11.94-11.78,28.15c1,16.21,7.68,28.16,15.7,28.16C351.13,279.94,356.08,268,354.89,251.78Z" transform="translate(0 -20.32)"/><path class="cls-2" d="M492.24,261.17c0,26.11-20.31,47.26-48.8,47.26-28.16,0-48.46-21.15-48.46-47.26s20.3-47.1,48.46-47.1C471.93,214.07,492.24,235.06,492.24,261.17Zm-26.45.34c-1.54-22.18-13.14-39.07-26.28-39.07-12.28,0-21,16.21-19.45,38.39,1.71,22.35,13.14,38.73,26.28,38.73C458.79,299.56,467.32,283.86,465.79,261.51Z" transform="translate(0 -20.32)"/><path class="cls-2" d="M575.15,279.94c0,17.06-13.48,28.15-36.34,28.15-21.67,0-34-13.14-34-23,0-11.61,13-16,13-16,0,10.92,7,27.64,22.69,27.64,5.63,0,12.8-3.92,12.8-10.92,0-16.55-43.85-15.87-43.85-48,0-14,15.52-23.72,32.08-23.72,25.59,0,33.61,17.07,27.3,24.58-4.44,5.29-13,2.21-13,2.21,0-3.07-2.56-17.23-15-17.23-5.81,0-12,3.75-12,10.41C528.91,248.37,575.15,253,575.15,279.94Z" transform="translate(0 -20.32)"/><path class="cls-2" d="M611.49,199.57c0,9.39-7.51,26.79-22.7,28.33v-4.61c5.46-.68,12.63-5.46,8.88-15.87-1.37-3.41-7-7.34-6.66-11.09a9.66,9.66,0,0,1,9.56-9.56C607.56,186.77,611.49,193.09,611.49,199.57Z" transform="translate(0 -20.32)"/><path class="cls-2" d="M692.19,279.94c0,17.06-13.48,28.15-36.34,28.15-21.67,0-34-13.14-34-23,0-11.61,13-16,13-16,0,10.92,7,27.64,22.69,27.64,5.64,0,12.8-3.92,12.8-10.92,0-16.55-43.85-15.87-43.85-48,0-14,15.53-23.72,32.08-23.72,25.59,0,33.61,17.07,27.3,24.58-4.44,5.29-13,2.21-13,2.21,0-3.07-2.56-17.23-15-17.23-5.81,0-11.95,3.75-11.95,10.41C646,248.37,692.19,253,692.19,279.94Z" transform="translate(0 -20.32)"/><path class="cls-3" d="M12.81,354.39H10.37V334.84H17.7c3.76,0,6.23,2.3,6.23,5.82A5.59,5.59,0,0,1,20,346.27l4.53,8.12H21.67l-4.19-7.74H12.81Zm0-9.89h4.67c2.51,0,3.93-1.36,3.93-3.76s-1.52-3.74-4-3.74H12.81Z" transform="translate(0 -20.32)"/><path class="cls-3" d="M39.1,354.39H27V334.84H39.1V337H29.43v6.27H38.6v2.17H29.43v6.72H39.1Z" transform="translate(0 -20.32)"/><path class="cls-3" d="M43.83,349c.23,2.11,2.24,3.51,5,3.51s4.57-1.4,4.57-3.32c0-1.66-1.16-2.67-3.78-3.35l-2.51-.65c-3.6-.92-5.2-2.51-5.2-5.16,0-3.25,2.84-5.53,6.91-5.53,3.88,0,6.7,2.3,6.81,5.58H53.22c-.21-2.1-1.91-3.38-4.45-3.38s-4.3,1.31-4.3,3.22c0,1.48,1.08,2.36,3.74,3.05l2,.54c4.05,1,5.69,2.57,5.69,5.38,0,3.58-2.82,5.81-7.32,5.81-4.15,0-7-2.25-7.25-5.7Z" transform="translate(0 -20.32)"/><path class="cls-3" d="M63.74,354.39V337H57.57v-2.19H72.34V337H66.18v17.36Z" transform="translate(0 -20.32)"/><path class="cls-3" d="M83,348.79H75.17l-2,5.6H70.65l7.2-19.55h2.42l7.2,19.55H84.91Zm-7.06-2.07h6.34L79.1,337.8H79Z" transform="translate(0 -20.32)"/><path class="cls-3" d="M92.15,347.37c0,2.95,1.94,5.09,5.32,5.09s5.33-2.14,5.33-5.09V334.84h2.44v12.69c0,4.17-2.92,7.18-7.77,7.18s-7.76-3-7.76-7.18V334.84h2.44Z" transform="translate(0 -20.32)"/><path class="cls-3" d="M111.47,354.39H109V334.84h7.33c3.77,0,6.23,2.3,6.23,5.82a5.58,5.58,0,0,1-3.93,5.61l4.53,8.12h-2.86l-4.19-7.74h-4.67Zm0-9.89h4.67c2.51,0,3.93-1.36,3.93-3.76s-1.51-3.74-4-3.74h-4.57Z" transform="translate(0 -20.32)"/><path class="cls-3" d="M136.4,348.79h-7.78l-2,5.6H124.1l7.21-19.55h2.41l7.21,19.55h-2.57Zm-7.06-2.07h6.34l-3.13-8.92h-.08Z" transform="translate(0 -20.32)"/><path class="cls-3" d="M143.16,354.39V334.84h2.37l10.71,15.35h.12V334.84h2.41v19.55H156.4l-10.71-15.3h-.12v15.3Z" transform="translate(0 -20.32)"/><path class="cls-3" d="M167.51,354.39V337h-6.17v-2.19h14.77V337H170v17.36Z" transform="translate(0 -20.32)"/><path class="cls-2" d="M362.35,187.63l-5.81,0c-2.63,0-5.26,0-7.9,0-9.61,0-19.84-.06-30-1.56-11.26-1.66-20.3-4.83-27.65-9.7a47.1,47.1,0,0,1-11.07-10.17,50.79,50.79,0,0,1-4.45-6.69l-.15-.28a27.34,27.34,0,0,1-2.21-4.63,30.12,30.12,0,0,1-.53-15.3c.32-1.54.31-2.49-.61-3.45-.28-.29-.57-.57-.86-.85l-1.65-1.61c-.79-.77-1.57-1.53-2.34-2.31a6,6,0,0,1-1.1-7.12,11.8,11.8,0,0,1,2.88-3.56c1.19-1,2.47-1.93,4.05-1.69a7,7,0,0,1,3.2,1.88c.24.21.48.41.7.58l1.25,1c.81.66,1.65,1.35,2.51,1.92.69.46,1.13.09,2-.88.12-.13.23-.26.35-.38a33.88,33.88,0,0,1,3.51-3.28l.36-.28a2.31,2.31,0,0,0,1.07-1.22,2.08,2.08,0,0,0-.06-1,8.67,8.67,0,0,0-.81-2,43.18,43.18,0,0,0-4.56-6.65c-.19-.24-.4-.49-.62-.74a7,7,0,0,1-1.89-3.2c-.3-1.74.76-3.33,3.06-4.61a30.36,30.36,0,0,1,8.15-2.74,147.29,147.29,0,0,1,20.93-2.78c3.16-.25,6.37-.41,9.47-.56l.22,0c10.23-.51,20.78-.8,32.24-.88,9.85-.07,20.64.21,33.93.86h.23c3,.15,6.1.31,9.15.53a158.1,158.1,0,0,1,20.86,2.67,34.72,34.72,0,0,1,8.45,2.65c2.46,1.23,3.64,2.66,3.61,4.36a5.15,5.15,0,0,1-1.48,3.1,57.22,57.22,0,0,0-5.2,7.19l-.05.1c-.72,1.23-1.93,3.3-.88,4.39a7.65,7.65,0,0,0,1,.81,10,10,0,0,1,.8.62c.53.45,1.08,1,1.69,1.57s1.14,1.15,1.68,1.74.91.93,1.39.79a2.54,2.54,0,0,0,.83-.55l.3-.24,2.22-1.73c.34-.26.68-.53,1-.81.71-.57,1.45-1.17,2.22-1.69,2.64-1.75,5.75.81,7.63,3.52s1.86,6-.23,8.17l-.05.05,0,0-2.85,2.8-.72.67a6.4,6.4,0,0,0-2.14,2.7,4.55,4.55,0,0,0,.16,2l.12.59c.15.76.28,1.58.38,2.42a31.14,31.14,0,0,1,.21,4.91,28.08,28.08,0,0,1-1,6.69,21.42,21.42,0,0,1-1.7,4,51.25,51.25,0,0,1-4.34,7,50.57,50.57,0,0,1-23.62,17.25c-10.57,3.87-21.92,4.83-29.53,5.21C372.85,187.57,367.56,187.63,362.35,187.63Zm-11.66-1.1h5.86c7,0,14.33.06,21.47-.3,7.55-.37,18.79-1.32,29.22-5.14a49.64,49.64,0,0,0,23.13-16.88,50.23,50.23,0,0,0,4.24-6.89,19.92,19.92,0,0,0,1.63-3.83,27,27,0,0,0,1-6.44,31.46,31.46,0,0,0-.21-4.74c-.1-.82-.22-1.61-.37-2.35,0-.18-.07-.37-.12-.56a5.5,5.5,0,0,1-.15-2.5,7.16,7.16,0,0,1,2.47-3.25c.24-.22.48-.43.68-.64l2.1-2.05h0l-.06-.06-2.23,2.18-.7.67a8,8,0,0,0-2.14,2.55,5.37,5.37,0,0,0,0,3.34c0,.25.11.5.15.76a31.77,31.77,0,0,1,.51,5.34,28.51,28.51,0,0,1-.83,7.21,18.55,18.55,0,0,1-1.44,3.7,52.2,52.2,0,0,1-4.21,7A45.71,45.71,0,0,1,420,174.37c-7.13,5.09-16,8.46-27.05,10.28-10.15,1.68-20.61,1.8-29.61,1.8l-7.56,0c-7,0-14.25.06-21.37-.21-12.13-.47-21.13-1.84-29.21-4.46-10-3.24-18.34-8.8-24.18-16.08a49.73,49.73,0,0,1-4.49-6.72l-.2-.36a24.13,24.13,0,0,1-2.13-4.47,24.88,24.88,0,0,1-1.08-5.69,30.83,30.83,0,0,1,0-4.61,35.22,35.22,0,0,1,.56-3.92c.09-.48.18-1,.26-1.45.29-1.7-.53-2.9-2-4.3l-3.68-3.62a5.9,5.9,0,0,1-1.54-2.1,5.24,5.24,0,0,1,.84-4.92,10.59,10.59,0,0,1,3.58-3.38,2.57,2.57,0,0,1,3.06.37l4.1,3.18.51.41c.95.78,1.84,1.52,2.91,1.22a4.79,4.79,0,0,0,2-1.67c.24-.27.46-.53.69-.76a42.38,42.38,0,0,1,3.64-3.19c1.14-.92,1.27-2.35.4-4.37a29.84,29.84,0,0,0-3.51-5.62c-.55-.73-1.12-1.45-1.69-2.16s-1-1.22-1.45-1.85a3.78,3.78,0,0,1-.65-1.16,2.22,2.22,0,0,1,.41-2.16,6.84,6.84,0,0,1,2.28-1.74A32.11,32.11,0,0,1,292,98.09c3-.65,6.37-1.19,10.47-1.69,5.41-.65,10.95-1.11,17-1.4,3.78-.18,8.76-.41,13.75-.57,14-.47,28-.49,41.67-.07,5.21.15,10.4.39,15.42.62,5.46.24,10.85.67,16,1.25,4.14.47,7.53,1,10.65,1.6a39.66,39.66,0,0,1,8.56,2.46,9.32,9.32,0,0,1,2.66,1.66,2.61,2.61,0,0,1,.95,2.1c-.07,1.09-1,2.12-1.8,3-.22.25-.44.49-.61.72a45.15,45.15,0,0,0-4.44,6.42c-.74,1.38-1.49,3-1,4.28a4.5,4.5,0,0,0,1.76,1.93c.31.23.61.46.88.7a41.11,41.11,0,0,1,3.32,3.31,2.24,2.24,0,0,0,2.63.8,4.62,4.62,0,0,0,.86-.6l.26-.2,4.21-3.27.38-.3a10.46,10.46,0,0,1,.84-.65c1.71-1.13,3.4.34,4.31,1.14a8.11,8.11,0,0,1,3,5.35,4.38,4.38,0,0,1-.68,2.57,0,0,0,0,1,0,0c1.12-1.7,1-3.88-.48-6-1.29-1.87-4-4.64-6.15-3.24-.74.49-1.45,1.07-2.14,1.63l-1,.83L431,124.29l-.27.22a3.5,3.5,0,0,1-1.23.76,2.33,2.33,0,0,1-2.41-1c-.59-.64-1.14-1.22-1.7-1.77s-1.13-1.09-1.63-1.52c-.23-.2-.48-.38-.73-.56a8.58,8.58,0,0,1-1.15-.94c-1.61-1.66-.09-4.27.72-5.67l.06-.1a58,58,0,0,1,5.22-7.25,4.3,4.3,0,0,0,1.31-2.52c0-1.25-1-2.35-3-3.39A34.37,34.37,0,0,0,418,98a157.12,157.12,0,0,0-20.72-2.64c-3-.23-6.13-.38-9.12-.53h-.23c-13.27-.65-24-.93-33.87-.86-11.45.08-22,.37-32.2.88h-.21c-3.1.16-6.3.32-9.45.56a149.38,149.38,0,0,0-20.78,2.76,29.7,29.7,0,0,0-7.86,2.63c-1.3.73-2.8,1.92-2.53,3.5a6.15,6.15,0,0,0,1.65,2.68c.23.26.45.52.65.78a43,43,0,0,1,4.67,6.82,9.66,9.66,0,0,1,.9,2.24,3.14,3.14,0,0,1,.06,1.48,3.21,3.21,0,0,1-1.47,1.84l-.34.26a31.61,31.61,0,0,0-3.4,3.18c-.11.11-.21.23-.32.36-.74.82-1.85,2.07-3.39,1-.9-.6-1.76-1.3-2.59-2-.41-.33-.81-.67-1.23-1-.23-.18-.48-.39-.73-.61a6.35,6.35,0,0,0-2.66-1.63c-1.15-.18-2.22.62-3.22,1.45a10.63,10.63,0,0,0-2.61,3.24,4.89,4.89,0,0,0,.9,5.87c.77.77,1.55,1.53,2.34,2.3l1.64,1.61c.3.28.6.57.88.87,1.38,1.42,1.2,3,.89,4.41a29.2,29.2,0,0,0,.51,14.74,25.52,25.52,0,0,0,2.12,4.45l.15.28a50.35,50.35,0,0,0,4.36,6.55,46,46,0,0,0,10.82,9.94c7.21,4.78,16.11,7.89,27.22,9.53,10.08,1.49,20.27,1.58,29.84,1.55ZM272.42,120.9a1.55,1.55,0,0,0-.74.21,9.44,9.44,0,0,0-3.2,3,4.18,4.18,0,0,0-.74,4,4.87,4.87,0,0,0,1.29,1.72l3.68,3.62c1.31,1.28,2.67,2.85,2.27,5.24-.08.49-.17,1-.26,1.47a33.17,33.17,0,0,0-.56,3.8,29.88,29.88,0,0,0,0,4.44,24.08,24.08,0,0,0,1,5.46,25,25,0,0,0,2.05,4.27l.2.36a47.58,47.58,0,0,0,4.4,6.57c5.71,7.12,13.89,12.56,23.67,15.73,8,2.59,16.9,3.95,28.92,4.41,7.1.27,14.33.24,21.33.21l7.56,0c9,0,19.37-.12,29.44-1.78,10.91-1.8,19.61-5.1,26.6-10.1a44.73,44.73,0,0,0,10.4-10.42,50.6,50.6,0,0,0,4.12-6.89,17,17,0,0,0,1.36-3.49,27.29,27.29,0,0,0,.8-6.94,30.67,30.67,0,0,0-.49-5.16c0-.25-.09-.49-.14-.73a6.24,6.24,0,0,1,.06-4,9,9,0,0,1,2.39-2.92c.24-.21.47-.43.68-.64l3-2.94a3.5,3.5,0,0,0,1-2.62,7.07,7.07,0,0,0-2.65-4.6c-1.23-1.07-2.16-1.62-3-1-.26.18-.51.38-.76.58s-.26.22-.4.32l-4.45,3.46a5.17,5.17,0,0,1-1.07.73,3.24,3.24,0,0,1-3.88-1,44.51,44.51,0,0,0-3.23-3.23c-.26-.22-.54-.43-.82-.64a5.35,5.35,0,0,1-2.13-2.44c-.59-1.73.26-3.55,1.11-5.13a46.26,46.26,0,0,1,4.54-6.58c.18-.24.41-.5.65-.77A5.47,5.47,0,0,0,428,104a1.61,1.61,0,0,0-.63-1.26,8.52,8.52,0,0,0-2.36-1.45,38.55,38.55,0,0,0-8.33-2.38c-3.09-.62-6.45-1.12-10.56-1.58-5.15-.59-10.52-1-15.95-1.26-5-.22-10.21-.46-15.41-.61-13.67-.42-27.67-.4-41.61.06-5,.17-9.95.4-13.72.58-6,.28-11.51.74-16.89,1.39-4.07.49-7.36,1-10.37,1.68a30.71,30.71,0,0,0-7.84,2.49,6.1,6.1,0,0,0-1.93,1.43,1.21,1.21,0,0,0-.24,1.2,3.12,3.12,0,0,0,.48.84c.47.61.95,1.22,1.43,1.82s1.16,1.45,1.72,2.2a29.82,29.82,0,0,1,3.63,5.83c1.07,2.48.84,4.38-.7,5.62a42.53,42.53,0,0,0-3.56,3.11c-.21.21-.42.46-.64.71a5.54,5.54,0,0,1-2.52,2c-1.6.45-2.86-.58-3.88-1.41l-.48-.39-4.1-3.19A1.94,1.94,0,0,0,272.42,120.9Z" transform="translate(0 -20.32)"/><g class="cls-4"><path class="cls-2" d="M354.22,124.07l.48-.83c.16-.27.34-.53.49-.81.28-.56.6-1.09.85-1.66a24.42,24.42,0,0,0,1.39-3.37,28.29,28.29,0,0,0,1.39-6.84c0-.57.05-1.14.06-1.7s0-1.12-.06-1.68-.06-1.11-.16-1.66l-.11-.82c0-.27-.1-.54-.15-.81l-.16-.8c-.08-.27-.14-.53-.21-.79-.12-.53-.29-1-.46-1.56s-.37-1-.57-1.58-.42-1-.63-1.57c-.45-1-.94-2.08-1.48-3.11l-.81-1.54c-.28-.51-.58-1-.86-1.52-1.2-2-2.46-4.07-3.83-6.11l-4.15-6.26c-.69-1.08-1.38-2.17-2.07-3.3l-1-1.72-1-1.77a66.56,66.56,0,0,1-3.43-7.46,51,51,0,0,1-2.29-8.06,43.78,43.78,0,0,1-.82-8.39,41.56,41.56,0,0,1,.18-4.19c.08-.7.15-1.37.25-2.09l.38-2.18c.18-.72.37-1.43.57-2.14s.48-1.4.73-2.09a25.62,25.62,0,0,1,1.94-3.93,24.8,24.8,0,0,1,5.65-6.52,22,22,0,0,1,7.39-3.95,23.12,23.12,0,0,1,4-.84c.68,0,1.34-.1,2-.1s1.33,0,2,.08l.07.6a22.73,22.73,0,0,0-7.12,2.14,21.94,21.94,0,0,0-6,4.36,23.76,23.76,0,0,0-6.44,13.11l-.2,1.85c-.05.62-.07,1.25-.1,1.87,0,1.25,0,2.5.05,3.75a43,43,0,0,0,1.05,7.4,55.3,55.3,0,0,0,5.46,13.92c2.38,4.41,5.22,8.61,7.83,12.95a68.18,68.18,0,0,1,6.67,13.71,30.93,30.93,0,0,1,1.59,7.51,26.7,26.7,0,0,1-.52,7.67,27,27,0,0,1-7.37,13.26Z" transform="translate(0 -20.32)"/><path class="cls-2" d="M367.3,109.3c1.73-6.06.63-11-1.21-15.84-.48-1.2-1-2.39-1.57-3.55-.29-.58-.58-1.16-.89-1.73s-.64-1.13-.95-1.7-.67-1.11-1-1.65l-1.08-1.64c-.75-1.13-1.61-2.29-2.43-3.52s-1.69-2.45-2.49-3.75-1.64-2.61-2.38-4c-.38-.69-.76-1.39-1.12-2.11s-.69-1.46-1-2.2-.64-1.51-.92-2.3-.54-1.59-.77-2.41a23.41,23.41,0,0,1-.83-5.25,14,14,0,0,1,.89-5.62A9.92,9.92,0,0,1,353,47.59a10.28,10.28,0,0,1,2.28-1.22,12.91,12.91,0,0,1,2.37-.61l.28.54A12.26,12.26,0,0,0,354.51,49a8.25,8.25,0,0,0-1.87,3.76,11.1,11.1,0,0,0,0,4.26,20.76,20.76,0,0,0,1.24,4.17A49.19,49.19,0,0,0,358,68.91c1.6,2.49,3.32,4.9,5,7.33a58.36,58.36,0,0,1,4.75,7.63,37.64,37.64,0,0,1,3.07,8.49,24.92,24.92,0,0,1,.46,9,17.67,17.67,0,0,1-3.58,8.27Z" transform="translate(0 -20.32)"/></g></g></g></svg>